<svg width="139px" height="26px" viewBox="0 0 139 26" version="1.1" xmlns="http://www.w3.org/2000/svg" xmlns:xlink="http://www.w3.org/1999/xlink">
    <g id="Logo-Moneyman" stroke="none" stroke-width="1" fill="none" fill-rule="evenodd" transform="translate(1.000000, 1.000000)">
        <g stroke-width="0.66">
            <path class="logo_money_word" d="M17.1114234,0.0569491525 C18.3983183,0.0569491525 19.1256937,0.914440678 19.1256937,2.10386441 L19.1256937,16.2663051 C19.1256937,17.2621017 18.3983183,17.9812881 17.3632072,17.9812881 C16.3560721,17.9812881 15.6286967,17.2621017 15.6286967,16.2663051 L15.6286967,5.78277966 L11.4602763,12.3661017 C10.9287327,13.1959322 10.3971892,13.4725424 9.61386186,13.4725424 C8.85851051,13.4725424 8.29899099,13.1959322 7.76744745,12.3661017 L3.627003,5.83810169 L3.627003,16.2663051 C3.627003,17.2621017 2.89962763,17.9812881 1.86451652,17.9812881 C0.857381381,17.9812881 0.130006006,17.2621017 0.130006006,16.2663051 L0.130006006,2.35281356 C0.130006006,0.942101695 0.969285285,0.0569491525 2.45201201,0.0569491525 C3.76688288,0.0569491525 4.43830631,0.748474576 5.24960961,2.02088136 L9.83766967,9.4340339 L14.7894174,1.49532203 C15.3489369,0.610169492 15.9364324,0.0569491525 17.1114234,0.0569491525 Z M21.9594955,11.259661 C21.9594955,7.41477966 25.0648288,4.28908475 28.9255135,4.28908475 C32.8141742,4.28908475 35.9195075,7.41477966 35.9195075,11.259661 C35.9195075,15.1322034 32.8141742,18.2578983 28.9255135,18.2578983 C25.0648288,18.2578983 21.9594955,15.1322034 21.9594955,11.259661 Z M32.4784625,11.259661 C32.4784625,9.12976271 30.9957357,7.44244068 28.9534895,7.44244068 C26.8832673,7.44244068 25.3725646,9.12976271 25.3725646,11.259661 C25.3725646,13.3895593 26.8832673,15.1045424 28.9534895,15.1045424 C30.9957357,15.1045424 32.4784625,13.3895593 32.4784625,11.259661 Z M45.7752793,4.28908475 C48.8806126,4.28908475 50.8948829,6.41898305 50.8948829,9.87661017 L50.8948829,16.2939661 C50.8948829,17.2897627 50.1954835,17.9812881 49.1883483,17.9812881 C48.1812132,17.9812881 47.4538378,17.2897627 47.4538378,16.2939661 L47.4538378,10.3745085 C47.4538378,8.57654237 46.3907508,7.44244068 44.7401682,7.44244068 C43.0616096,7.44244068 42.0264985,8.57654237 42.0264985,10.3745085 L42.0264985,16.2939661 C42.0264985,17.2897627 41.3270991,17.9812881 40.319964,17.9812881 C39.3128288,17.9812881 38.6134294,17.2897627 38.6134294,16.2939661 L38.6134294,6.25301695 C38.6134294,5.25722034 39.3128288,4.56569492 40.291988,4.56569492 C41.2431712,4.56569492 41.8866186,5.11891525 41.9985225,5.97640678 C42.8378018,4.89762712 44.1526727,4.28908475 45.7752793,4.28908475 Z M66.9333453,10.1532203 C66.9333453,11.3426441 66.2339459,12.1171525 64.9190751,12.1171525 L56.9738979,12.1171525 C57.3096096,13.9704407 58.7363844,15.2981695 60.7786306,15.2981695 C62.7929009,15.2981695 63.5202763,14.3300339 64.4714595,14.3300339 C65.2827628,14.3300339 65.8422823,14.8279322 65.8422823,15.6301017 C65.8422823,17.1237966 63.5762282,18.2578983 60.6667267,18.2578983 C56.4983063,18.2578983 53.4769009,15.1322034 53.4769009,11.259661 C53.4769009,7.41477966 56.2465225,4.28908475 60.386967,4.28908475 C64.5833634,4.28908475 66.9333453,7.30413559 66.9333453,10.1532203 Z M60.2750631,7.13816949 C58.5965045,7.13816949 57.4215135,8.2999322 57.0298498,9.98725424 L63.4923003,9.98725424 C63.1565886,8.1339661 61.8976697,7.13816949 60.2750631,7.13816949 Z M79.4188589,4.5380339 C80.5378979,4.5380339 81.3492012,5.36786441 80.8176577,6.80623729 L75.9778138,19.5856271 C74.9147267,22.4623729 73.2361682,23.6794576 70.9980901,23.6794576 C69.1516757,23.6794576 67.5290691,22.8219661 67.5290691,21.4942373 C67.5290691,20.7750508 68.0606126,20.0835254 68.9838198,20.0835254 C69.7391712,20.0835254 70.2707147,20.5261017 71.1939219,20.5261017 C72.0611772,20.5261017 72.5927207,19.9452203 73.1522402,18.4238644 L73.2641441,18.0919322 L68.1165646,7.02752542 C67.4171652,5.53383051 68.3123964,4.5380339 69.5713153,4.5380339 C70.6344024,4.5380339 70.9980901,5.20189831 71.4457057,6.19769492 L74.8028228,13.8597966 L77.6283964,6.11471186 C77.9920841,5.06359322 78.4676757,4.5380339 79.4188589,4.5380339 Z" id="Moneyman-Copy" stroke="#9EDC15" fill="#9EDC15"></path>
            <path class="logo_man_word" d="M99.1781261,4.28908475 C102.283459,4.28908475 104.325706,6.336 104.325706,9.87661017 L104.325706,16.2939661 C104.325706,17.2897627 103.59833,17.9812881 102.619171,17.9812881 C101.612036,17.9812881 100.884661,17.2897627 100.884661,16.2939661 L100.884661,10.3745085 C100.884661,8.57654237 99.8775255,7.44244068 98.2549189,7.44244068 C96.6323123,7.44244068 95.6251772,8.57654237 95.6251772,10.3745085 L95.6251772,16.2939661 C95.6251772,17.2897627 94.9257778,17.9812881 93.9186426,17.9812881 C92.9115075,17.9812881 92.1841321,17.2897627 92.1841321,16.2939661 L92.1841321,10.3745085 C92.1841321,8.57654237 91.176997,7.44244068 89.5543904,7.44244068 C87.9317838,7.44244068 86.9246486,8.57654237 86.9246486,10.3745085 L86.9246486,16.2939661 C86.9246486,17.2897627 86.2252492,17.9812881 85.2181141,17.9812881 C84.210979,17.9812881 83.5115796,17.2897627 83.5115796,16.2939661 L83.5115796,6.25301695 C83.5115796,5.25722034 84.210979,4.56569492 85.1901381,4.56569492 C86.1692973,4.56569492 86.8407207,5.17423729 86.9246486,6.08705085 C87.735952,4.98061017 89.0228468,4.28908475 90.6174775,4.28908475 C92.5757958,4.28908475 94.0585225,5.14657627 94.8978018,6.69559322 C95.6811291,5.39552542 97.051952,4.28908475 99.1781261,4.28908475 Z" id="Path" stroke="#4C4C4C" fill="#4C4C4C"></path>
            <path class="logo_man_word" d="M119.161201,4.56569492 C120.168336,4.56569492 120.867736,5.25722034 120.867736,6.25301695 L120.867736,16.2939661 C120.867736,17.2897627 120.168336,17.9812881 119.161201,17.9812881 C118.182042,17.9812881 117.482643,17.3450847 117.426691,16.4322712 C116.475508,17.5663729 115.104685,18.2578983 113.342198,18.2578983 C109.789249,18.2578983 106.907724,15.4088136 106.907724,11.259661 C106.907724,7.27647458 109.621393,4.28908475 113.342198,4.28908475 C115.104685,4.28908475 116.475508,4.92528814 117.426691,6.03172881 C117.538595,5.14657627 118.210018,4.56569492 119.161201,4.56569492 Z M113.901718,15.1045424 C115.943964,15.1045424 117.426691,13.3895593 117.426691,11.259661 C117.426691,9.12976271 115.943964,7.44244068 113.901718,7.44244068 C111.831495,7.44244068 110.320793,9.12976271 110.320793,11.259661 C110.320793,13.3895593 111.831495,15.1045424 113.901718,15.1045424 Z" id="Combined-Shape" stroke="#4C4C4C" fill="#4C4C4C"></path>
            <path class="logo_man_word" d="M131.618739,4.28908475 C134.724072,4.28908475 136.738342,6.41898305 136.738342,9.87661017 L136.738342,16.2939661 C136.738342,17.2897627 136.038943,17.9812881 135.031808,17.9812881 C134.024673,17.9812881 133.297297,17.2897627 133.297297,16.2939661 L133.297297,10.3745085 C133.297297,8.57654237 132.23421,7.44244068 130.583628,7.44244068 C128.905069,7.44244068 127.869958,8.57654237 127.869958,10.3745085 L127.869958,16.2939661 C127.869958,17.2897627 127.170559,17.9812881 126.163423,17.9812881 C125.156288,17.9812881 124.456889,17.2897627 124.456889,16.2939661 L124.456889,6.25301695 C124.456889,5.25722034 125.156288,4.56569492 126.135447,4.56569492 C127.086631,4.56569492 127.730078,5.11891525 127.841982,5.97640678 C128.681261,4.89762712 129.996132,4.28908475 131.618739,4.28908475 Z" id="Path" stroke="#4C4C4C" fill="#4C4C4C"></path>
        </g>
    </g>
</svg>