<svg xmlns="http://www.w3.org/2000/svg" viewBox="0 0 328 53">
    <polygon
            points="55.73 20.24 41.79 33.83 45.08 53 27.86 43.95 10.64 53 13.93 33.83 0 20.24 19.25 17.45 27.86 0 36.47 17.45 55.73 20.24"
            fill="#bdbdbd"
    />
    <polygon
            points="124.4 20.24 110.46 33.83 113.75 53 96.53 43.95 79.31 53 82.6 33.83 68.67 20.24 87.92 17.45 96.53 0 105.14 17.45 124.4 20.24"
            fill="#bdbdbd"
    />
    <polygon
            points="178.23 33.83 181.52 53 164.3 43.95 147.08 53 150.37 33.83 136.44 20.24 155.69 17.45 164.3 0 172.91 17.45 192.17 20.24 178.23 33.83"
            fill="#bdbdbd"
    />
    <polygon
            points="192.17 20.24 178.23 33.83 181.52 53 164.3 43.95 147.08 53 150.37 33.83 136.44 20.24 155.69 17.45 164.3 0 172.91 17.45 192.17 20.24"
            fill="#bdbdbd"
    />
    <polygon
            points="260 20.24 246.06 33.83 249.35 53 232.13 43.95 214.91 53 218.2 33.83 204.27 20.24 223.52 17.45 232.13 0 240.74 17.45 260 20.24"
            fill="#bdbdbd"
    />
    <polygon
            points="328 20.24 314.06 33.83 317.35 53 300.13 43.95 282.91 53 286.2 33.83 272.27 20.24 291.52 17.45 300.13 0 308.74 17.45 328 20.24"
            fill="#bdbdbd"
    />
</svg>