<svg xmlns="http://www.w3.org/2000/svg" width="92" height="12" viewBox="0 0 92 12">
    <g fill="#FFF" fill-rule="evenodd" stroke="#FFF" stroke-linecap="round" stroke-width=".72">
        <path d="M5.791 9.606l-2.42 1.247a.54.54 0 0 1-.779-.573l.457-2.61a.54.54 0 0 0-.159-.484L.963 5.345a.54.54 0 0 1 .297-.925l2.682-.382a.54.54 0 0 0 .406-.292l1.208-2.399a.54.54 0 0 1 .965 0l1.207 2.399a.54.54 0 0 0 .406.292l2.683.382a.54.54 0 0 1 .297.925L9.187 7.186a.54.54 0 0 0-.16.483l.458 2.611a.54.54 0 0 1-.78.573l-2.42-1.247a.54.54 0 0 0-.494 0zM26.141 9.606l-2.42 1.247a.54.54 0 0 1-.779-.573l.457-2.61a.54.54 0 0 0-.159-.484l-1.927-1.841a.54.54 0 0 1 .297-.925l2.682-.382a.54.54 0 0 0 .406-.292l1.208-2.399a.54.54 0 0 1 .965 0l1.207 2.399a.54.54 0 0 0 .406.292l2.683.382a.54.54 0 0 1 .297.925l-1.927 1.841a.54.54 0 0 0-.16.483l.458 2.611a.54.54 0 0 1-.78.573l-2.42-1.247a.54.54 0 0 0-.494 0zM65.916 9.606l-2.42 1.247a.54.54 0 0 1-.779-.573l.457-2.61a.54.54 0 0 0-.159-.484l-1.927-1.841a.54.54 0 0 1 .297-.925l2.682-.382a.54.54 0 0 0 .406-.292l1.208-2.399a.54.54 0 0 1 .965 0l1.207 2.399a.54.54 0 0 0 .406.292l2.683.382a.54.54 0 0 1 .297.925l-1.927 1.841a.54.54 0 0 0-.16.483l.458 2.611a.54.54 0 0 1-.78.573l-2.42-1.247a.54.54 0 0 0-.494 0zM45.566 9.606l-2.42 1.247a.54.54 0 0 1-.779-.573l.457-2.61a.54.54 0 0 0-.159-.484l-1.927-1.841a.54.54 0 0 1 .297-.925l2.682-.382a.54.54 0 0 0 .406-.292l1.208-2.399a.54.54 0 0 1 .965 0l1.207 2.399a.54.54 0 0 0 .406.292l2.683.382a.54.54 0 0 1 .297.925l-1.927 1.841a.54.54 0 0 0-.16.483l.458 2.611a.54.54 0 0 1-.78.573l-2.42-1.247a.54.54 0 0 0-.494 0zM85.341 9.606l-2.42 1.247a.54.54 0 0 1-.779-.573l.457-2.61a.54.54 0 0 0-.159-.484l-1.927-1.841a.54.54 0 0 1 .297-.925l2.682-.382a.54.54 0 0 0 .406-.292l1.208-2.399a.54.54 0 0 1 .965 0l1.207 2.399a.54.54 0 0 0 .406.292l2.683.382a.54.54 0 0 1 .297.925l-1.927 1.841a.54.54 0 0 0-.16.483l.458 2.611a.54.54 0 0 1-.78.573l-2.42-1.247a.54.54 0 0 0-.494 0z"></path>
    </g>
</svg>