<svg width="5px" height="9px" viewBox="0 0 11 18" version="1.1" xmlns="http://www.w3.org/2000/svg">
    <g id="1_1_SEO-Landing_double-selector" stroke="none" stroke-width="1" fill-rule="evenodd" transform="translate(-190.000000, -1587.000000)">
        <g id="Content-2" transform="translate(0.000000, 1474.000000)">
            <g id="Subtitle" transform="translate(190.000000, 96.000000)">
                <path d="M4.40111766,30.5373909 L-2.77638554,23.4632796 C-3.07453815,23.1552704 -3.07453815,22.6551524 -2.77638554,22.3471432 L-1.69673496,21.2310069 C-1.39858234,20.9229977 -0.915236989,20.9229977 -0.617084373,21.2310069 L4.94055873,26.6317075 C5.23871135,26.9397167 5.72282513,26.9397167 6.02020931,26.6317075 L11.6170844,21.2310069 C11.915237,20.9229977 12.3985823,20.9229977 12.696735,21.2310069 L13.7763855,22.3471432 C14.0745382,22.6551524 14.0745382,23.1552704 13.7763855,23.4632796 L6.56041882,30.5373909 C5.96411359,31.154203 4.99742289,31.154203 4.40111766,30.5373909 Z" id="Icon" transform="translate(5.500000, 26.000000) rotate(-90.000000) translate(-5.500000, -26.000000)"/>
            </g>
        </g>
    </g>
</svg>