<svg width="81" height="87" xmlns="http://www.w3.org/2000/svg"><g fill="none" fill-rule="evenodd"><path d="M40.356 81.128C18.226 81.128.234 63.134.234 41.01c0-22.124 18-40.144 40.122-40.144 22.133 0 40.125 18.025 40.125 40.144 0 22.113-17.983 40.118-40.125 40.118z" fill="#FFF"/><g opacity=".8"><path d="M75.127 73.134L64.27 62.269l-.547 3.665a6.47 6.47 0 0 1-2.584 4.242 6.38 6.38 0 0 1-4.803 1.145l-6.066-.99c-.5-.033-.804.108-1.023.333l-1.034 1.04 14.18 14.179a2.07 2.07 0 0 0 2.074.519 2.082 2.082 0 0 0 1.42-1.6l1.278-6.88 6.9-1.294a2.03 2.03 0 0 0 1.585-1.42 2.07 2.07 0 0 0-.523-2.074zM30.65 70.306L24.4 71.32c-1.75.27-3.447-.151-4.825-1.161a6.462 6.462 0 0 1-2.571-4.243l-.55-3.648-10.85 10.865a2.09 2.09 0 0 0-.517 2.07c.232.738.845 1.27 1.588 1.42l6.896 1.288 1.294 6.89a2.05 2.05 0 1 0 3.477 1.085l14.175-14.185-1.035-1.045a1.16 1.16 0 0 0-.832-.351z" fill="#9EDC15" fill-rule="nonzero"/><path d="M50.687 67.785l6.058.978a3.83 3.83 0 0 0 2.876-.693 3.831 3.831 0 0 0 1.54-2.53l.914-6.046a3.756 3.756 0 0 1 2.037-2.808l5.48-2.738a3.815 3.815 0 0 0 1.934-2.246 3.859 3.859 0 0 0-.24-2.957l-2.824-5.46a3.762 3.762 0 0 1 0-3.441l2.823-5.454a3.909 3.909 0 0 0 .24-2.958 3.85 3.85 0 0 0-1.933-2.246l-5.48-2.735a3.764 3.764 0 0 1-2.037-2.808l-.914-6.05a3.821 3.821 0 0 0-1.54-2.523 3.789 3.789 0 0 0-2.876-.696l-6.058 1.013a3.75 3.75 0 0 1-3.282-1.066l-4.304-4.379a3.861 3.861 0 0 0-5.474 0l-4.304 4.379a3.738 3.738 0 0 1-3.282 1.066l-6.048-.998a3.812 3.812 0 0 0-2.882.696 3.8 3.8 0 0 0-1.54 2.523l-.906 6.05a3.78 3.78 0 0 1-2.041 2.808l-5.483 2.735a3.848 3.848 0 0 0-1.929 2.246 3.88 3.88 0 0 0 .236 2.957l2.822 5.455a3.722 3.722 0 0 1 0 3.441l-2.822 5.458a3.893 3.893 0 0 0-.236 2.96 3.858 3.858 0 0 0 1.929 2.245l5.483 2.738a3.78 3.78 0 0 1 2.041 2.806l.905 6.052a3.842 3.842 0 0 0 1.54 2.526c.83.609 1.865.856 2.883.693l6.048-.995a3.704 3.704 0 0 1 3.282 1.062l4.304 4.363a3.82 3.82 0 0 0 2.736 1.153 3.81 3.81 0 0 0 2.738-1.153l4.304-4.363a3.717 3.717 0 0 1 3.282-1.06zm-10.33-8.256c-10.22 0-18.528-8.31-18.528-18.526 0-10.217 8.312-18.538 18.528-18.538 10.22 0 18.529 8.324 18.529 18.538 0 10.211-8.305 18.526-18.53 18.526z" fill="#9EDC15" fill-rule="nonzero"/><path d="M40.357 59.529c-10.22 0-18.528-8.31-18.528-18.526 0-10.217 8.312-18.538 18.528-18.538 10.22 0 18.529 8.324 18.529 18.538 0 10.211-8.305 18.526-18.53 18.526z" fill="#FFF"/></g></g></svg>