<svg width="12" height="18" viewBox="0 0 12 18" fill="none" xmlns="http://www.w3.org/2000/svg">
<path d="M5.59907 15.1403L6 15.6783L6.40093 15.1403C8.49529 12.3296 9.56279 10.4791 10.1057 9.20764C10.6589 7.91206 10.6667 7.21727 10.6667 6.74984C10.6667 5.51216 10.175 4.32518 9.29983 3.45001C8.42466 2.57484 7.23768 2.08317 6 2.08317C4.76232 2.08317 3.57534 2.57484 2.70017 3.45001C1.825 4.32518 1.33333 5.51216 1.33333 6.74984C1.33333 7.21727 1.34114 7.91206 1.89433 9.20764C2.43721 10.4791 3.50471 12.3296 5.59907 15.1403ZM6 5.1665C6.41993 5.1665 6.82265 5.33332 7.11959 5.63025C7.41652 5.92718 7.58333 6.32991 7.58333 6.74984C7.58333 6.95776 7.54238 7.16365 7.46281 7.35575C7.38324 7.54785 7.26661 7.7224 7.11959 7.86942C6.97256 8.01645 6.79802 8.13308 6.60592 8.21265C6.41382 8.29222 6.20793 8.33317 6 8.33317C5.58008 8.33317 5.17735 8.16636 4.88042 7.86942C4.58348 7.57249 4.41667 7.16976 4.41667 6.74984C4.41667 6.32991 4.58348 5.92718 4.88042 5.63025C5.17735 5.33332 5.58008 5.1665 6 5.1665ZM6 1.4165C7.41449 1.4165 8.77104 1.97841 9.77124 2.9786C10.7714 3.9788 11.3333 5.33535 11.3333 6.74984C11.3333 7.74242 10.9996 8.89177 10.4656 10.0838C9.93447 11.2693 9.22191 12.4607 8.50219 13.5275C7.78342 14.5928 7.06366 15.5247 6.52323 16.1906C6.31989 16.4412 6.14226 16.6536 6 16.821C5.85775 16.6536 5.68011 16.4412 5.47677 16.1906C4.93634 15.5247 4.21658 14.5928 3.49782 13.5275C2.77809 12.4607 2.06553 11.2693 1.53443 10.0838C1.00039 8.89177 0.666668 7.74242 0.666668 6.74984C0.666668 5.33535 1.22857 3.9788 2.22877 2.9786C3.22896 1.97841 4.58551 1.4165 6 1.4165Z" fill="#C01818" stroke="#C01818"/>
</svg>
