<svg width="14" height="14" viewBox="0 0 14 14" fill="none" xmlns="http://www.w3.org/2000/svg">
<path d="M2.66126 6.0257L2.40453 6.28243L2.56918 6.60601C3.68382 8.79658 5.47897 10.5917 7.66954 11.7064L7.99312 11.871L8.24984 11.6143L9.87947 9.98466C9.94873 9.91541 10.0403 9.89519 10.129 9.92212C11.0076 10.2119 11.948 10.3681 12.9259 10.3681C12.9898 10.3681 13.051 10.3935 13.0962 10.4387C13.1413 10.4838 13.1667 10.545 13.1667 10.6089V13.2015C13.1667 13.2653 13.1413 13.3266 13.0962 13.3717C13.051 13.4169 12.9898 13.4422 12.9259 13.4422C9.71877 13.4422 6.64297 12.1682 4.37517 9.90038C2.10737 7.63258 0.833328 4.55678 0.833328 1.34963C0.833328 1.28578 0.858692 1.22455 0.90384 1.1794C0.948987 1.13425 1.01022 1.10889 1.07407 1.10889H3.66666C3.73051 1.10889 3.79174 1.13425 3.83689 1.1794C3.88204 1.22455 3.9074 1.28578 3.9074 1.34963C3.9074 2.32757 4.06366 3.26789 4.35342 4.14654C4.38036 4.2352 4.36014 4.32682 4.29089 4.39607L2.66126 6.0257Z" fill="#C01818" stroke="#C01818"/>
</svg>
