<svg xmlns="http://www.w3.org/2000/svg" width="19" height="37" viewBox="0 0 19 37">
    <g fill="#FFF" fill-rule="evenodd" stroke="#FFF" stroke-width=".5">
        <path d="M.41 35.907c-.15-.108-.112-.4.037-.539.13-.122.263-.249.403-.346.283-.197.57-.383.859-.56 1.971-1.219 3.774-2.826 5.522-4.53 1.304-1.273 2.414-2.726 3.384-4.266a46.41 46.41 0 0 0 1.434-2.437c.78-1.422 1.273-2.866 1.693-4.296.552-1.879.78-3.677.882-5.44.11-1.878-.024-3.636-.264-5.33-.21-1.49-.499-2.94-.92-4.3-.066-.214-.096-.454-.13-.689-.015-.104.156-.357.285-.412.1-.043.217-.067.295-.043.08.026.142.103.179.185.077.17.146.347.194.538.431 1.688.857 3.38 1.027 5.232.08.87.16 1.743.183 2.642.02.79-.006 1.607-.068 2.433-.13 1.733-.4 3.51-.954 5.351-.702 2.334-1.776 4.622-3.237 6.852-.672 1.026-1.416 2.003-2.16 2.982-.589.773-1.303 1.395-1.979 2.053-1.855 1.803-3.812 3.375-5.889 4.636a3.88 3.88 0 0 1-.541.291c-.096.039-.188-.004-.235-.007"/>
        <path d="M14.125 1.104c.234.176.466.354.701.53.218.162.44.32.657.483.88.659 1.655 1.427 2.152 2.486.046.098.082.204.115.31.023.072-.042.207-.114.252-.086.053-.177.076-.245.013a.674.674 0 0 1-.151-.204c-.477-1.019-1.216-1.767-2.06-2.4-.737-.553-1.472-1.113-2.332-1.466a.883.883 0 0 0-.242-.064c-.03-.003-.097.048-.102.076-.02.118-.026.237-.03.354-.063 1.765-.05 3.52-.273 5.302-.046.362-.103.72-.259 1.067a.952.952 0 0 1-.11.192c-.068.088-.163.11-.241.076-.05-.022-.09-.088-.105-.147a.393.393 0 0 1 .012-.21c.241-.69.268-1.387.325-2.08.08-.96.112-1.913.119-2.865.004-.616.05-1.24.036-1.854-.003-.14.022-.286.043-.429.016-.112.151-.214.258-.204.063.006.133.003.188.028.55.254 1.136.437 1.658.754"/>
    </g>
</svg>
