<svg xmlns="http://www.w3.org/2000/svg" width="67" height="67" viewBox="0 0 67 67">
    <defs>
        <linearGradient id="m5bp723t3a" x1="50%" x2="50%" y1="0%" y2="135.305%">
            <stop offset="0%" stop-color="#9EDC15"/>
            <stop offset="100%" stop-color="#60AD16"/>
        </linearGradient>
    </defs>
    <g fill="none" fill-rule="evenodd">
        <g>
            <g>
                <g fill="url(#m5bp723t3a)" stroke="url(#m5bp723t3a)" stroke-width=".5" transform="translate(-15 -477) translate(16 478)">
                    <path d="M64.815 20.275c0-.774 0-1.548-.005-2.322-.004-.652-.011-1.304-.029-1.956-.037-1.42-.122-2.853-.373-4.257-.256-1.426-.675-2.752-1.335-4.048-.648-1.273-1.494-2.437-2.504-3.447-1.01-1.009-2.173-1.855-3.447-2.504-1.294-.659-2.62-1.077-4.045-1.333C51.67.156 50.239.072 48.819.033 48.166.016 47.515.01 46.862.004 46.09 0 45.314 0 44.54 0H20.275c-.773 0-1.548 0-2.321.004-.653.005-1.305.012-1.957.03-1.42.038-2.854.122-4.258.374-1.425.256-2.751.674-4.045 1.333-1.274.649-2.439 1.495-3.448 2.504-1.01 1.01-1.855 2.174-2.504 3.447C1.082 8.988.664 10.314.408 11.74c-.251 1.404-.336 2.837-.373 4.257-.018.652-.026 1.304-.03 1.956C0 18.727 0 19.5 0 20.275V44.54c0 .774 0 1.548.005 2.322.004.652.012 1.304.03 1.955.037 1.421.122 2.853.373 4.258.256 1.426.674 2.753 1.334 4.048.649 1.273 1.494 2.436 2.504 3.445 1.01 1.011 2.174 1.857 3.448 2.505 1.294.66 2.62 1.077 4.045 1.333 1.404.252 2.838.338 4.258.375.652.018 1.304.025 1.957.03.773.004 1.548.004 2.321.004H44.54c.774 0 1.549 0 2.322-.005.653-.004 1.304-.011 1.957-.029 1.42-.037 2.852-.123 4.258-.375 1.425-.256 2.751-.674 4.045-1.333 1.274-.648 2.437-1.494 3.447-2.505 1.01-1.009 1.856-2.172 2.504-3.445.66-1.295 1.079-2.622 1.335-4.048.251-1.405.336-2.837.373-4.258.018-.651.025-1.303.03-1.955.004-.774.004-1.548.004-2.322V20.275z"/>
                </g>
                <path fill="#FFF" d="M48.093 13.426c2.697 0 4.222 1.838 4.222 4.388v30.361c0 2.135-1.525 3.677-3.694 3.677-2.111 0-3.636-1.542-3.636-3.677V25.701l-8.737 14.113c-1.114 1.78-2.228 2.372-3.87 2.372-1.583 0-2.756-.593-3.87-2.372L19.83 25.82v22.356c0 2.135-1.525 3.677-3.694 3.677-2.111 0-3.636-1.542-3.636-3.677V18.348c0-3.024 1.76-4.922 4.867-4.922 2.756 0 4.163 1.482 5.864 4.21l9.616 15.892L43.226 16.51c1.173-1.897 2.404-3.083 4.867-3.083z" transform="translate(-15 -477) translate(16 478)"/>
            </g>
        </g>
    </g>
</svg>
