<?xml version="1.0" encoding="UTF-8"?>
<svg xmlns="http://www.w3.org/2000/svg" width="125" height="16" viewBox="0 0 125 16">
    <g fill="#FFF" fill-rule="evenodd">
        <path d="M0 15.244h2.033V2.033H0zM12.302 13.381c2.838 0 4.16-1.507 4.16-4.743 0-3.236-1.322-4.743-4.16-4.743H9.96v9.486h2.34zM8.13 15.244V2.033h3.825c4.324 0 6.338 2.099 6.338 6.605 0 4.507-2.014 6.606-6.338 6.606H8.13zM27.439 15.244V2.033h9.146v1.862h-7.288v4.213h6.152v1.863h-6.152v5.273H27.44M41.667 15.244h2.032V2.033h-2.032zM59.42 15.074l-7.727-9.697v9.697h-1.869V2.164h1.658l7.727 9.697V2.163h1.868v12.91H59.42M73.462 13.98v-1.955l2.532.504-3.675-7.926-3.663 7.926 2.528-.504v1.955l-5.776 1.151L72.32.216l6.928 14.916-5.785-1.152M92.865 15.244L85.19 5.32v9.923h-1.857V2.033h1.648l7.675 9.923V2.033h1.856v13.21h-1.647M106.176 15.244c-4.223 0-6.583-2.474-6.583-6.606s2.36-6.605 6.583-6.605c2.139 0 3.657.76 4.596 1.398l-1.122 1.472a6.153 6.153 0 0 0-3.474-1.057c-3.048 0-4.594 1.681-4.594 4.792 0 3.111 1.546 4.793 4.594 4.793a6.151 6.151 0 0 0 3.474-1.058l1.122 1.472a8.028 8.028 0 0 1-4.596 1.399M114.837 15.244V2.033H125v1.862h-8.17v3.812h6.95V9.57h-6.95v3.811H125v1.863h-10.163"></path>
    </g>
</svg>