<?xml version="1.0" encoding="UTF-8"?>
<svg width="478px" height="139px" viewBox="0 0 478 139" version="1.1" xmlns="http://www.w3.org/2000/svg" xmlns:xlink="http://www.w3.org/1999/xlink">
    <!-- Generator: Sketch 61.1 (89650) - https://sketch.com -->
    <title>Plazo_logo_positive</title>
    <desc>Created with Sketch.</desc>
    <g id="Plazo-variations" stroke="none" stroke-width="1" fill="none" fill-rule="evenodd">
        <g id="1_2_Logo_Plazo" transform="translate(-480.000000, -361.000000)">
            <g id="Plazo_logo_positive" transform="translate(480.000000, 361.000000)">
                <path d="M58.29,135.54 C49.83,135.54 36.69,135 28.59,135 C20.85,135 9.51,135.54 1.23,135.54 C1.05,134.64 0.87,133.38 0.87,132.3 C0.87,130.5 1.23,129.6 2.67,129.42 L9.15,128.34 C13.83,127.44 14.01,124.02 14.01,110.7 L14.01,37.44 C14.01,23.94 13.83,20.52 9.15,19.8 L2.67,18.72 C1.23,18.36 0.87,17.64 0.87,15.66 C0.87,14.58 1.05,13.5 1.23,12.6 C7.17,12.78 15.99,12.96 23.55,12.96 C35.25,12.96 52.35,11.7 60.27,11.7 C82.77,11.7 103.65,22.86 103.65,48.42 C103.65,68.04 86.37,86.94 55.23,86.94 C48.93,86.94 47.49,85.86 47.49,82.98 C47.49,81.36 47.49,79.92 47.85,78.3 C49.47,78.66 50.91,78.84 52.71,78.84 C64.05,78.84 74.67,71.1 74.67,50.22 C74.67,31.5 66.75,20.34 51.09,20.34 C48.57,20.34 45.33,20.7 42.99,21.42 C41.73,22.86 41.01,27.36 41.01,38.34 L41.01,109.44 C41.01,123.3 42.63,127.26 47.67,127.98 L56.85,129.24 C58.29,129.42 58.65,130.32 58.65,132.12 C58.65,133.38 58.47,134.82 58.29,135.54 Z M161.07,135.54 C155.13,135.36 145.41,135 138.75,135 C132.09,135 122.01,135.36 115.71,135.54 C115.53,134.64 115.35,133.56 115.35,132.3 C115.35,130.68 115.71,129.96 117.15,129.6 L122.55,128.7 C126.69,127.8 126.69,124.56 126.69,113.58 L126.69,29.88 C126.69,21.06 126.33,19.08 123.27,17.28 L118.05,14.4 C116.79,13.5 116.43,13.5 116.43,11.88 C116.43,10.98 116.61,9.9 116.79,9.18 C120.93,8.64 126.15,7.74 133.71,5.4 C140.55,3.24 145.95,0.18 149.01,0.18 C149.73,0.18 150.27,0.36 150.63,0.72 C150.45,9 150.27,15.84 150.27,23.04 L150.27,113.58 C150.27,124.56 150.27,127.8 154.41,128.7 L159.81,129.6 C161.07,129.96 161.43,130.68 161.43,132.3 C161.43,133.56 161.25,134.64 161.07,135.54 Z M239.91,112.86 C239.91,120.78 240.99,126 246.39,126 C248.37,126 250.17,124.56 251.79,124.56 C253.23,124.56 253.59,125.64 253.59,127.08 C253.59,128.16 253.41,129.96 253.41,130.5 C248.19,133.38 238.47,137.34 231.63,137.34 C222.81,137.34 220.65,132.84 218.13,127.98 C217.95,127.8 217.41,127.8 216.87,127.8 C208.59,135.18 201.93,138.24 192.57,138.24 C180.33,138.24 172.41,129.6 172.41,118.8 C172.41,108 177.27,103.5 190.23,98.46 C197.97,95.4 208.59,92.34 215.43,90.18 C215.97,89.64 216.33,89.28 216.51,88.92 L216.51,77.76 C216.51,67.86 209.67,63.54 203.01,63.54 C195.99,63.54 192.21,66.24 192.21,72 C192.21,73.62 192.57,75.24 192.75,76.68 C192.57,77.22 192.39,77.58 192.03,78.12 C189.15,80.46 183.75,82.62 180.15,82.62 C177.45,82.62 175.29,81.18 175.29,78.48 C175.29,72.36 177.45,67.86 185.01,62.82 C194.37,56.88 205.89,51.48 216.51,51.48 C228.57,51.48 239.91,58.32 239.91,73.08 L239.91,112.86 Z M216.51,117.72 L216.51,97.38 C212.73,98.46 208.77,100.08 205.35,101.52 C199.23,104.22 195.81,106.92 195.81,113.94 C195.81,120.6 199.95,125.28 206.07,125.28 C208.77,125.28 212.37,124.2 214.53,122.4 C216.33,121.14 216.51,119.88 216.51,117.72 Z M336.93,109.62 C335.85,114.84 333.87,128.52 333.15,134.1 C332.97,134.46 332.79,134.82 332.07,135.36 C329.73,134.82 309.57,135 299.13,135 C286.53,135 263.49,135.54 258.45,135.54 C258.09,134.82 257.91,133.38 258.45,132.12 C260.79,128.88 264.39,123.12 267.27,118.26 L300.39,63 L300.39,62.64 L289.95,62.64 C272.49,62.64 270.51,64.08 267.09,74.7 C266.73,75.96 266.19,76.5 264.03,76.5 C262.77,76.5 261.87,76.32 261.15,76.14 C261.87,69.3 263.13,56.7 263.67,49.86 C264.21,49.68 265.11,49.68 266.01,49.68 C267.45,49.68 267.99,49.86 268.17,50.76 C268.71,52.56 268.89,53.64 270.51,53.82 C273.21,54.18 282.93,54.36 293.37,54.36 C305.79,54.36 326.31,53.82 331.35,53.82 C331.89,54.54 331.89,55.98 331.53,56.88 C329.37,59.76 325.41,66.24 322.53,71.1 L290.13,126.36 L290.13,126.72 L304.17,126.72 C322.53,126.72 324.87,123.48 330.63,110.88 C331.17,109.44 331.89,108.9 333.69,108.9 C335.13,109.08 336.21,109.26 336.93,109.62 Z M435.75,94.14 C435.75,119.52 418.11,138.24 390.57,138.24 C363.21,138.24 343.95,121.32 343.95,95.22 C343.95,69.84 361.41,51.12 388.95,51.12 C416.31,51.12 435.75,68.04 435.75,94.14 Z M409.65,94.86 C409.65,78.3 403.53,59.4 389.13,59.4 C373.29,59.4 370.05,77.58 370.05,94.5 C370.05,111.06 376.17,129.78 390.39,129.78 C406.23,129.78 409.65,111.78 409.65,94.86 Z" id="Plazo." fill="#0B152D"></path>
                <path d="M477.87,122.58 C477.87,131.04 471.75,137.52 462.93,137.52 C453.93,137.52 447.45,131.22 447.45,122.76 C447.45,114.12 453.57,107.46 462.57,107.46 C471.39,107.46 477.87,113.94 477.87,122.58 Z" id="Path" fill="#F89721" fill-rule="nonzero"></path>
            </g>
        </g>
    </g>
</svg>