<?xml version="1.0" encoding="UTF-8"?>
<svg xmlns="http://www.w3.org/2000/svg" width="82" height="24">
    <path d="M9.826 23.53a2.9 2.9 0 00.062-.594c0-.313-.062-.47-.308-.5l-1.571-.22c-.863-.125-1.14-.813-1.14-3.223V6.633c0-1.908.123-2.69.339-2.94.4-.126.955-.188 1.386-.188 2.68 0 4.035 1.94 4.035 5.194 0 3.63-1.817 4.975-3.758 4.975-.308 0-.554-.031-.831-.094-.062.282-.062.532-.062.814 0 .5.246.688 1.325.688 5.328 0 8.286-3.285 8.286-6.696 0-4.443-3.574-6.383-7.424-6.383-1.355 0-4.282.219-6.284.219-1.294 0-2.803-.032-3.82-.063A2.87 2.87 0 000 2.691c0 .344.062.47.308.532l1.109.188c.8.125.832.72.832 3.066v12.736c0 2.315-.031 2.91-.832 3.066l-1.109.188c-.246.031-.308.187-.308.5 0 .188.03.407.062.564 1.417 0 3.357-.094 4.682-.094 1.386 0 3.634.094 5.082.094zm17.589 0c.03-.156.061-.344.061-.563 0-.281-.061-.406-.277-.469l-.924-.156c-.708-.157-.708-.72-.708-2.629V3.973c0-1.25.03-2.44.061-3.88C25.567.032 25.474 0 25.351 0c-.524 0-1.448.532-2.618.907-1.294.407-2.187.564-2.896.658a2.16 2.16 0 00-.061.469c0 .282.061.282.277.438l.893.5c.524.314.585.658.585 2.191v14.55c0 1.909 0 2.472-.708 2.629l-.924.156c-.247.063-.308.188-.308.47 0 .218.03.406.061.563 1.078-.032 2.803-.094 3.943-.094 1.14 0 2.803.062 3.82.094zm13.491-3.942c0 1.377.185 2.284 1.11 2.284.338 0 .646-.25.923-.25.247 0 .308.188.308.438 0 .188-.03.5-.03.594-.894.501-2.557 1.19-3.727 1.19-1.51 0-1.88-.783-2.31-1.628-.032-.03-.124-.03-.216-.03C35.547 23.467 34.407 24 32.805 24c-2.094 0-3.45-1.502-3.45-3.38 0-1.877.832-2.66 3.05-3.535 1.324-.532 3.142-1.064 4.312-1.44a.979.979 0 00.185-.219v-1.94c0-1.72-1.17-2.472-2.31-2.472-1.201 0-1.848.47-1.848 1.471 0 .282.061.563.092.814a.943.943 0 01-.123.25c-.493.407-1.417.782-2.033.782-.462 0-.832-.25-.832-.72 0-1.063.37-1.846 1.664-2.722 1.601-1.032 3.573-1.971 5.39-1.971 2.064 0 4.004 1.189 4.004 3.755v6.915zm-4.004.845v-3.536c-.647.188-1.324.47-1.91.72-1.047.469-1.632.938-1.632 2.159 0 1.158.708 1.971 1.755 1.971.463 0 1.079-.188 1.448-.5.308-.22.34-.439.34-.814zm20.607-1.408c-.123-.063-.308-.094-.554-.125-.308 0-.431.093-.524.344-.986 2.19-1.386 2.753-4.528 2.753h-2.402v-.062l5.544-9.606c.493-.845 1.17-1.972 1.54-2.472.062-.157.062-.407-.03-.532-.863 0-4.375.094-6.5.094-1.787 0-3.45-.032-3.912-.094-.277-.032-.308-.22-.4-.532-.031-.157-.124-.188-.37-.188-.154 0-.308 0-.4.031-.093 1.19-.309 3.38-.432 4.569.123.031.277.062.493.062.37 0 .462-.094.524-.313.585-1.846.924-2.096 3.912-2.096h1.786v.062l-5.667 9.607c-.493.845-1.11 1.846-1.51 2.41a.784.784 0 000 .594c.863 0 4.805-.094 6.962-.094 1.786 0 5.236-.032 5.637.062a.527.527 0 00.184-.219c.124-.97.462-3.348.647-4.255zm16.911-2.691c0 4.412-3.019 7.666-7.731 7.666-4.682 0-7.978-2.941-7.978-7.478 0-4.412 2.988-7.667 7.7-7.667 4.682 0 8.01 2.942 8.01 7.479zm-4.466.125c0-2.879-1.048-6.164-3.512-6.164-2.71 0-3.265 3.16-3.265 6.101 0 2.88 1.047 6.133 3.48 6.133 2.711 0 3.297-3.129 3.297-6.07zM82 21.614c0-1.38-1.027-2.414-2.426-2.414-1.427 0-2.398 1.063-2.398 2.443 0 1.351 1.028 2.357 2.455 2.357C81.03 24 82 22.965 82 21.614z" fill="#FFF" fill-rule="evenodd"></path>
</svg>